# xmcd CD database file
#
# Track frame offsets:
#	182
#	15570
#	28827
#	44527
#	56382
#	82875
#	98042
#	114350
#	132487
#	144677
#
# Disc length: 2139 seconds
#
# Revision: 0
# Processed by: cddbd v1.4PL0 Copyright (c) Steve Scherf et al.
# Submitted via: CDex 1.50Beta7
#
DISCID=7f08590a
DTITLE=Grupo Cata Luzes - Viagem cigana
DYEAR=1983
DGENRE=Jazz
TTITLE0=maracujaba
TTITLE1=ilhas - olhos
TTITLE2=cheiro da terra
TTITLE3=cantata para os plebeus
TTITLE4=dança dos vivos
TTITLE5=um direito que assiste
TTITLE6=fardo de léguas
TTITLE7=vida cigana
TTITLE8=destino dos retirantes
TTITLE9=festas da xica
EXTD=YEAR: 1983
EXTT0=
EXTT1=
EXTT2=
EXTT3=
EXTT4=
EXTT5=
EXTT6=
EXTT7=
EXTT8=
EXTT9=
PLAYORDER=
